<?xml version="1.0" encoding="UTF-8"?>
<!-- Created with Inkscape (http://www.inkscape.org/) -->
<svg width="18.67mm" height="43.286mm" version="1.1" viewBox="0 0 18.67 43.286" xmlns="http://www.w3.org/2000/svg" xmlns:cc="http://creativecommons.org/ns#" xmlns:dc="http://purl.org/dc/elements/1.1/" xmlns:rdf="http://www.w3.org/1999/02/22-rdf-syntax-ns#">
 <metadata>
  <rdf:RDF>
   <cc:Work rdf:about="">
    <dc:format>image/svg+xml</dc:format>
    <dc:type rdf:resource="http://purl.org/dc/dcmitype/StillImage"/>
    <dc:title/>
   </cc:Work>
  </rdf:RDF>
 </metadata>
 <g transform="translate(-93.475 -112.83)">
  <g transform="matrix(.35278 0 0 -.35278 112.13 126.08)">
   <path d="m0 0c0.064 1.887 0.072 3.776-0.065 5.66-0.152 2.051-0.523 4.067-0.955 6.075-0.798 3.722-2.228 7.3-4.142 10.588-0.901 1.547-1.96 2.997-3.14 4.344-1.292 1.475-2.67 2.863-4.196 4.097-1.285 1.039-2.68 1.963-4.093 2.816-1.29 0.78-2.641 1.446-4.023 2.046-1.53 0.666-3.123 1.225-4.747 1.607-1.003 0.237-2.047 0.321-3.088 0.321-0.605 0-1.209-0.029-1.804-0.072-1.364-0.1-2.411-1.35-2.303-2.707 0.111-1.372 1.341-2.402 2.707-2.303 0.711 0.051 1.426 0.067 2.141 0.049 0.937-0.091 1.848-0.327 2.744-0.609 2.326-0.818 4.537-1.934 6.607-3.275 0.892-0.611 1.753-1.259 2.572-1.967 0.859-0.745 1.663-1.554 2.431-2.393 1.38-1.614 2.562-3.375 3.551-5.255 1.191-2.437 2.076-5.018 2.678-7.662 0.321-1.608 0.544-3.232 0.675-4.866 0.139-1.753 0.124-3.511 0.04-5.265-0.093-1.493-0.226-2.981-0.417-4.465-0.222-1.724-0.499-3.444-0.795-5.157-0.3-1.73-0.662-3.446-1.067-5.154-0.364-1.535-0.756-3.063-1.234-4.566-1.626-4.649-3.98-8.986-6.684-13.092-0.93-1.382-1.882-2.748-2.877-4.085-1.104-1.483-2.245-2.937-3.374-4.401-0.759-0.985-1.533-1.96-2.301-2.939-1.512-1.925-3.016-3.855-4.54-5.768-3.486-4.375-6.956-8.762-10.417-13.156-0.719-0.912-1.379-1.875-2.066-2.81-0.11-0.15-0.22-0.3-0.33-0.449 0.385 1.062 0.782 2.121 1.188 3.177 0.336 0.875 0.677 1.748 1.03 2.616 0.488 1.203 1.028 2.397 1.46 3.622 3e-3 4e-3 5e-3 9e-3 7e-3 0.013 0.061 0.18 0.123 0.36 0.181 0.541 0.071 0.377 0.042 0.746-0.083 1.108-0.185 0.52-0.572 0.955-1.066 1.198-1.065 0.525-2.303 0.054-2.848-0.967-1.256-2.356-2.359-4.811-3.328-7.298-0.507-1.3-0.971-2.609-1.432-3.927-0.441-1.259-0.865-2.534-1.233-3.816-0.227-0.79-0.453-1.582-0.677-2.374-0.85-2.561-1.665-5.136-2.493-7.705-0.043-0.119-0.085-0.237-0.127-0.356-0.024-0.043-0.048-0.086-0.073-0.13-0.125-0.225-0.225-0.463-0.335-0.696-0.165-0.351-0.27-0.801-0.398-1.191-0.12-0.365-0.172-0.895-0.115-1.241 0.016-0.289 0.073-0.575 0.171-0.857 0.249-0.702 0.823-1.434 1.532-1.723 0.779-0.316 0.841-0.289 1.666-0.326 0.341-0.015 0.682 0.078 0.988 0.223 0.063 0.031 0.124 0.059 0.181 0.086 0.122 0.027 0.248 0.057 0.385 0.086 0.524 0.113 0.979 0.369 1.454 0.611 0.811 0.413 1.539 0.951 2.259 1.502 0.962 0.738 1.894 1.527 2.82 2.309 0.997 0.844 1.989 1.694 2.993 2.53 1.975 1.65 3.957 3.29 5.978 4.883 1.523 1.199 3.046 2.396 4.574 3.586 1.755 1.365 3.602 2.653 5.083 4.324 0.876 0.986 0.954 2.498 0.217 3.583-0.292 0.426-0.67 0.755-1.132 0.986-0.249 0.083-0.499 0.166-0.748 0.249-0.521 0.098-1.031 0.06-1.532-0.115-0.566-0.284-1.164-0.546-1.681-0.918-0.326-0.233-0.63-0.465-0.931-0.726-0.613-0.532-1.22-1.071-1.825-1.61-1.543-1.353-3.097-2.692-4.653-4.03 0.295 0.4 0.593 0.799 0.901 1.189 1.75 2.218 3.506 4.432 5.247 6.657 1.772 2.264 3.566 4.513 5.349 6.77 1.575 1.991 3.111 4.012 4.664 6.02 0.947 1.224 1.886 2.454 2.821 3.688 1.116 1.475 2.226 2.954 3.29 4.469 1.21 1.724 2.363 3.494 3.48 5.28 1.976 3.157 3.668 6.47 5.012 9.945 1.449 3.751 2.384 7.661 3.051 11.621 0.664 3.945 1.103 7.948 1.24 11.947" fill="#2c2c2c"/>
  </g>
 </g>
</svg>
